<svg xmlns="http://www.w3.org/2000/svg" viewBox="0 0 305.87 69.3"><defs><style>.cls-1{fill:#fff;}</style></defs><g id="Warstwa_2" data-name="Warstwa 2"><g id="Warstwa_1-2" data-name="Warstwa 1"><path class="cls-1" d="M0,.39H9.25V3.2H3.33v3h5V9h-5v3.4H9.48v2.81H0Z"/><path class="cls-1" d="M15.58.39h3.65L21.61,7c.3.86.57,1.82.86,2.72h.09c.3-.9.55-1.86.84-2.72L25.74.39h3.63V15.17h-3V9.75c0-1.45.27-3.6.43-5h-.09L25.46,8.23l-2.1,5.65H21.52L19.41,8.23,18.23,4.72h-.09c.16,1.43.43,3.58.43,5v5.42h-3Z"/><path class="cls-1" d="M38.75.39h4l4.62,14.78H43.86L43,11.65H38.44l-.91,3.52h-3.4Zm.37,8.66h3.15l-.34-1.36c-.41-1.48-.82-3.22-1.2-4.76h-.09c-.37,1.56-.75,3.28-1.16,4.76Z"/><path class="cls-1" d="M52.16.39h3.33V15.17H52.16Z"/><path class="cls-1" d="M62.13.39h3.34v12h5.85v2.81H62.13Z"/><path class="cls-1" d="M76.67,6a2,2,0,1,1,4,0,2,2,0,1,1-4,0Zm0,7.35a2,2,0,1,1,4,0,2,2,0,1,1-4,0Z"/><path class="cls-1" d="M94.68.39h5c3.06,0,5.44.83,5.44,3.67a3.44,3.44,0,0,1-1.92,3.2v.09a3.34,3.34,0,0,1,2.65,3.47c0,3-2.54,4.35-5.74,4.35H94.68ZM99.57,6.3c1.64,0,2.34-.68,2.34-1.74S101.16,3,99.6,3H98V6.3Zm.32,6.28c1.81,0,2.74-.63,2.74-2s-.9-1.81-2.74-1.81H98v3.8Z"/><path class="cls-1" d="M111.55.39h3.33V15.17h-3.33Z"/><path class="cls-1" d="M121.43,8.32V.39h3.36V8.66c0,2.9.91,3.9,2.56,3.9s2.61-1,2.61-3.9V.39h3.22V8.32c0,5-2,7.12-5.83,7.12S121.43,13.29,121.43,8.32Z"/><path class="cls-1" d="M139.76.39h5.33c3.13,0,5.69,1.08,5.69,4.6a4.32,4.32,0,0,1-2.63,4.26l3.35,5.92h-3.74l-2.83-5.33h-1.84v5.33h-3.33Zm5.05,6.8c1.75,0,2.7-.75,2.7-2.2S146.56,3,144.81,3h-1.72V7.19Z"/><path class="cls-1" d="M156.11,7.71c0-4.83,2.72-7.6,6.71-7.6s6.71,2.79,6.71,7.6-2.72,7.73-6.71,7.73S156.11,12.54,156.11,7.71Zm10,0c0-2.95-1.27-4.72-3.29-4.72s-3.29,1.77-3.29,4.72,1.27,4.85,3.29,4.85S166.11,10.68,166.11,7.71Z"/><path class="cls-1" d="M174.84,10.52A10.09,10.09,0,0,1,185.07,0c4.89,0,8,3.33,8,8.07,0,4.15-2.79,6.24-5.17,6.24a2.46,2.46,0,0,1-2.6-1.73h0a3.66,3.66,0,0,1-2.72,1.5c-1.79,0-3-1.31-3-3.4,0-2.77,2-5.56,4.58-5.56a1.78,1.78,0,0,1,1.72,1.14h0l.32-1h2.07l-1,5c-.32,1.32,0,2,1,2,1.36,0,2.69-1.58,2.69-4.08C191,4.92,189.24,2,184.79,2c-3.87,0-7.71,3.31-7.71,8.41,0,4.47,3.09,6.62,6.63,6.62a7.9,7.9,0,0,0,3.44-.88l.73,1.81a9.11,9.11,0,0,1-4.45,1.09C178.9,19.07,174.84,16.3,174.84,10.52Zm9.91.45.54-3.06a1.12,1.12,0,0,0-1-.65c-1.36,0-2.18,1.86-2.18,3.22,0,1,.43,1.52,1.18,1.52C183.73,12,184.18,11.72,184.75,11Z"/><path class="cls-1" d="M197.67.39h3.43l1,6.91c.18,1.54.41,3.11.59,4.67h.09c.29-1.56.59-3.13.88-4.67L205.27.39h2.84l1.58,6.91c.3,1.5.59,3.09.89,4.67h.09c.2-1.58.41-3.15.61-4.67l1-6.91h3.2l-2.63,14.78h-4.2l-1.45-6.71c-.25-1.14-.43-2.34-.59-3.43h-.09c-.18,1.09-.36,2.29-.61,3.43l-1.38,6.71h-4.13Z"/><path class="cls-1" d="M223.44.39h4l4.62,14.78h-3.53l-.91-3.52h-4.51l-.91,3.52h-3.4Zm.36,8.66H227l-.34-1.36c-.41-1.48-.82-3.22-1.2-4.76h-.09c-.36,1.56-.75,3.28-1.16,4.76Z"/><path class="cls-1" d="M239.58.39h4l4.63,14.78h-3.54l-.9-3.52h-4.52l-.9,3.52H235Zm.36,8.66h3.16l-.34-1.36c-.41-1.48-.82-3.22-1.21-4.76h-.09c-.36,1.56-.75,3.28-1.15,4.76Z"/><path class="cls-1" d="M253,.39h3.34V6.44h.09l4.4-6.05h3.67L260,6.28l5.29,8.89h-3.65L258,8.93l-1.72,2.27v4H253Z"/><path class="cls-1" d="M269.7,13.36a2,2,0,1,1,4,0,2,2,0,1,1-4,0Z"/><path class="cls-1" d="M280,.39h5.08c3.25,0,5.88,1.17,5.88,4.76s-2.66,5-5.79,5h-1.83v5H280Zm5,7.12c1.84,0,2.72-.82,2.72-2.36S286.7,3,284.89,3h-1.54V7.51Z"/><path class="cls-1" d="M296.68.39H300v12h5.85v2.81h-9.19Z"/><path class="cls-1" d="M24.44,57.06H20.39V54.24H31.86v2.82H27.8V69H24.44Z"/><path class="cls-1" d="M37.33,54.24h9.25v2.82H40.66v3h5v2.78h-5v3.41H46.8V69H37.33Z"/><path class="cls-1" d="M52.9,54.24h3.34v12h5.85V69H52.9Z"/><path class="cls-1" d="M67.44,59.87a2,2,0,1,1,2,2.08A2,2,0,0,1,67.44,59.87Zm0,7.34a2,2,0,1,1,2,2.09A2,2,0,0,1,67.44,67.21Z"/><path class="cls-1" d="M88.46,62.72h-4V60.37h4V56.19h2.45v4.18h4v2.35h-4V66.9H88.46Z"/><path class="cls-1" d="M105.49,65.58H99.26V63.29l5.26-8.66h4.08V63h1.65v2.54H108.6V69h-3.11Zm0-2.54V60.71c0-.93.09-2.32.14-3.22h-.09c-.37.79-.77,1.61-1.18,2.42L102.45,63Z"/><path class="cls-1" d="M114.9,65.35a3.94,3.94,0,0,1,2.45-3.53v-.09a4.17,4.17,0,0,1-1.93-3.4c0-2.45,1.93-4,4.61-4s4.37,1.56,4.37,3.94a3.85,3.85,0,0,1-1.88,3.15v.1a4.11,4.11,0,0,1,2.5,3.76c0,2.27-2,4-5.11,4C117,69.3,114.9,67.69,114.9,65.35Zm7-.15c0-1.27-1.22-1.75-3-2.52A3.22,3.22,0,0,0,117.76,65,2,2,0,0,0,120,67,1.72,1.72,0,0,0,121.91,65.2Zm-.2-6.67A1.69,1.69,0,0,0,120,56.67a1.52,1.52,0,0,0-1.61,1.66c0,1.17,1,1.74,2.47,2.31A3.22,3.22,0,0,0,121.71,58.53Z"/><path class="cls-1" d="M137.69,62.16c0-5.38,2.79-7.8,5.83-7.8a5.73,5.73,0,0,1,4.2,1.72l-1.75,2a3.29,3.29,0,0,0-2.24-1c-1.59,0-2.86,1.13-3,4.49A4,4,0,0,1,143.63,60c2.48,0,4.29,1.4,4.29,4.44a4.63,4.63,0,0,1-4.78,4.83C140.35,69.3,137.69,67.21,137.69,62.16Zm7.19,2.31c0-1.52-.79-2.09-1.88-2.09a2.55,2.55,0,0,0-2.18,1.43c.3,2.27,1.25,3,2.25,3S144.88,66.1,144.88,64.47Z"/><path class="cls-1" d="M152.73,61.77c0-4.9,2.06-7.41,5.15-7.41S163,56.87,163,61.77,161,69.3,157.88,69.3,152.73,66.67,152.73,61.77Zm7.14,0c0-3.94-.86-4.83-2-4.83s-2,.89-2,4.83.88,4.94,2,4.94S159.87,65.69,159.87,61.77Z"/><path class="cls-1" d="M167.85,67.12c3.68-3.47,6.26-5.94,6.26-8a1.94,1.94,0,0,0-2-2.18,3.7,3.7,0,0,0-2.56,1.48l-1.81-1.79a6.07,6.07,0,0,1,4.83-2.29,4.42,4.42,0,0,1,4.76,4.58c0,2.42-2.27,5-4.61,7.46a22.64,22.64,0,0,1,2.41-.18H178V69H167.85Z"/><path class="cls-1" d="M196.5,65.58h-6.24V63.29l5.26-8.66h4.08V63h1.66v2.54H199.6V69h-3.1Zm0-2.54V60.71c0-.93.09-2.32.13-3.22h-.09c-.36.79-.77,1.61-1.18,2.42L193.46,63Z"/><path class="cls-1" d="M211.62,65.58h-6.24V63.29l5.27-8.66h4.08V63h1.65v2.54h-1.65V69h-3.11Zm0-2.54V60.71c0-.93.09-2.32.14-3.22h-.09c-.37.79-.77,1.61-1.18,2.42L208.58,63Z"/><path class="cls-1" d="M221.06,67.58l1.76-2a3.2,3.2,0,0,0,2.23,1c1.61,0,2.85-1.13,3-4.49a4.07,4.07,0,0,1-2.88,1.52c-2.45,0-4.29-1.4-4.29-4.44a4.63,4.63,0,0,1,4.79-4.83c2.78,0,5.46,2.08,5.46,7.14,0,5.37-2.81,7.8-5.83,7.8A5.87,5.87,0,0,1,221.06,67.58ZM228,59.84c-.3-2.26-1.23-3-2.25-3s-1.81.7-1.81,2.34.82,2.08,1.9,2.08A2.5,2.5,0,0,0,228,59.84Z"/><path class="cls-1" d="M243.73,61.77c0-4.9,2.06-7.41,5.15-7.41S254,56.87,254,61.77,252,69.3,248.88,69.3,243.73,66.67,243.73,61.77Zm7.14,0c0-3.94-.86-4.83-2-4.83s-2,.89-2,4.83.89,4.94,2,4.94S250.87,65.69,250.87,61.77Z"/><path class="cls-1" d="M259,65.35a3.94,3.94,0,0,1,2.45-3.53v-.09a4.17,4.17,0,0,1-1.93-3.4c0-2.45,1.93-4,4.61-4s4.37,1.56,4.37,3.94a3.85,3.85,0,0,1-1.88,3.15v.1a4.11,4.11,0,0,1,2.49,3.76c0,2.27-2,4-5.1,4C261.1,69.3,259,67.69,259,65.35Zm7-.15c0-1.27-1.23-1.75-3-2.52A3.19,3.19,0,0,0,261.83,65a2,2,0,0,0,2.22,2A1.72,1.72,0,0,0,266,65.2Zm-.21-6.67A1.68,1.68,0,0,0,264,56.67a1.52,1.52,0,0,0-1.61,1.66c0,1.17,1,1.74,2.47,2.31A3.21,3.21,0,0,0,265.77,58.53Z"/><path class="cls-1" d="M280.6,57.44h-6.46V54.63h10v2c-3.33,4-3.8,6.73-4.05,12.36h-3.36C277,64.24,277.88,61.21,280.6,57.44Z"/></g></g></svg>