<svg xmlns="http://www.w3.org/2000/svg" viewBox="0 0 929.76 340.99"><defs><style>.cls-1,.cls-3{fill:#fff;}.cls-1,.cls-2{fill-rule:evenodd;}.cls-2{fill:none;stroke:#fff;stroke-miterlimit:22.93;stroke-width:12px;}.cls-3{font-size:36px;font-family:Atlanta-Book, Atlanta;}.cls-4{letter-spacing:0.68em;}</style></defs><g id="Warstwa_2" data-name="Warstwa 2"><g id="Warstwa_1-2" data-name="Warstwa 1"><path class="cls-1" d="M490.35,281.52h26l29.15-69h102l29.15,69h26.1l-94.2-222h-24L490.35,281.52h0Zm106.2-189.1,41.9,99.15h-84Z"/><polygon class="cls-1" points="729.1 281.52 729.1 59.47 753.1 59.47 753.1 159.77 847.6 59.47 878.8 59.47 779.2 165.22 881.85 281.52 850.1 281.52 753.1 171.82 753.1 281.52 729.1 281.52"/><polygon class="cls-1" points="63.1 281.52 0 59.47 24.9 59.47 76 238.87 129.05 59.47 153.05 59.47 206.1 238.87 257.2 59.47 282.1 59.47 219.1 281.52 195.1 281.52 141.05 99.72 87 281.52 63.1 281.52"/><path class="cls-1" d="M454.6,281.52h26.1l-94.2-222H362.45L268.3,281.52h26.05l29.15-69H425.45l29.15,69ZM374.5,92.42l41.9,99.15H332.45Z"/><polyline class="cls-2" points="485.41 297.79 485.41 334.99 923.76 334.99 923.76 6 485.41 6 485.41 43.2"/><text class="cls-3" transform="translate(68.48 329.76)"><tspan class="cls-4">FUNDACJ</tspan><tspan x="339.09" y="0">A</tspan></text></g></g></svg>